# xmcd CD database file
#
# Track frame offsets:
#	150
#	12975
#	24682
#	37050
#	49387
#	61087
#	74737
#	88215
#	101992
#	118942
#	130767
#	140917
#	151835
#	165150
#	174862
#	186297
#	196342
#	207105
#	217707
#	230662
#	239700
#	251055
#
# Disc length: 3480 seconds
#
# Revision: 0
# Processed by: cddbd v1.4PL0 Copyright (c) Steve Scherf et al.
# Submitted via: CDex 1.50
#
DISCID=480d9616
DTITLE=Patsy Cline - The Legendary Patsy Cline-Her Greatest Hits and Finest Performances (Disk 1)
DYEAR=1997
DGENRE=Country
TTITLE0=I Fall to Pieces
TTITLE1=Sweet Dreams (of You)
TTITLE2=A Poor Man's Roses (or a Rick Man's Gold)
TTITLE3=Crazy
TTITLE4=Walkin' After Midnight
TTITLE5=She's Got You
TTITLE6=Have You Ever Been Lonlely (Have You Ever Been Blue)
TTITLE7=So Wrong
TTITLE8=Faded Love
TTITLE9=When I Get Through with You  (You'll Love Me Too)
TTITLE10=I Love You So Much It Hurts
TTITLE11=Crazy Arms
TTITLE12=I Can't Help It (If I'm Still in Love with You)
TTITLE13=Blue Moon of Kentucky
TTITLE14=I'll Sail My Ship Alone
TTITLE15=Seven Lonely Days
TTITLE16=Your Cheatin' Heart
TTITLE17=San Antonio Rose
TTITLE18=Someday (You'll Want Me to Want You)
TTITLE19=Anytime
TTITLE20=Half As Much
TTITLE21=Foolin' Around
EXTD=YEAR: 1997
EXTT0=
EXTT1=
EXTT2=
EXTT3=
EXTT4=
EXTT5=
EXTT6=
EXTT7=
EXTT8=
EXTT9=
EXTT10=
EXTT11=
EXTT12=
EXTT13=
EXTT14=
EXTT15=
EXTT16=
EXTT17=
EXTT18=
EXTT19=
EXTT20=
EXTT21=
PLAYORDER=
